<svg width='200' height='200' fill="#a5da9a" xmlns="http://www.w3.org/2000/svg" xmlns:xlink="http://www.w3.org/1999/xlink" version="1.1" x="0px" y="0px" viewBox="0 0 100 100" style="enable-background:new 0 0 100 100;" xml:space="preserve"><g><circle cx="38.5" cy="33.1" r="2.1"/><circle cx="61.5" cy="33.1" r="2.1"/><path d="M53.8,43.8c0.1,2.1-1.5,4.3-3.8,4.3c-2.2,0-3.9-2.1-3.9-4.2c0-1.3-2-1.3-2,0c0,3.2,2.5,6.2,5.9,6.2c3.3,0,5.8-3.1,5.8-6.3   C55.8,42.5,53.8,42.5,53.8,43.8z"/><path d="M87.3,17.5H12.7c-2.8,0-5,2.2-5,5v43.2c0,2.8,2.2,5,5,5h30v3.9h-2.1c-2.2,0-3.9,1.8-3.9,3.9c0,0.6,0.1,1.2,0.4,1.7H24.3   v2.3h16.3h18.9h15.8v-2.3H63c0.2-0.5,0.4-1.1,0.4-1.7c0-2.2-1.8-3.9-3.9-3.9h-2.1v-3.9h30c2.8,0,5-2.2,5-5V22.5   C92.3,19.7,90.1,17.5,87.3,17.5z M59.5,76.9c0.9,0,1.7,0.7,1.7,1.7c0,0.9-0.7,1.7-1.7,1.7H40.5c-0.9,0-1.7-0.7-1.7-1.7   c0-0.9,0.7-1.7,1.7-1.7h2.1h14.6H59.5z M44.9,74.7V71h10.1v3.6H44.9z M90,58.2H10V22.5c0-1.5,1.2-2.8,2.8-2.8h74.6   c1.5,0,2.8,1.2,2.8,2.8V58.2z"/></g></svg>