<svg fill="#a5da9a" xmlns="http://www.w3.org/2000/svg" xmlns:xlink="http://www.w3.org/1999/xlink" version="1.1" x="0px" y="0px" viewBox="0 0 100 100" enable-background="new 0 0 100 100" xml:space="preserve"><g><path d="M6.5,8.5v84.75H93V8.5H6.5z M90.5,11v7.792H9V11H90.5z M9,90.75V21.292h81.5V90.75H9z"/><rect x="12.333" y="13.75" width="3.833" height="2.5"/><rect x="73.166" y="13.75" width="3.834" height="2.5"/><rect x="78.166" y="13.75" width="3.834" height="2.5"/><rect x="83.166" y="13.75" width="3.834" height="2.5"/><path d="M77.252,60.417h6.167v-17.75H54.252v6.583H51.25v-9.5h14.667v-15.5h-33v15.5H48.75v9.5h-3v-6.583H16.583v17.75h7.167v8   h-7.167V85.25h16.833v-7.166h8.835v7.166h16.833v-7.166h8.5v7.166h16.833V68.417h-7.166V60.417z M35.417,26.75h28v10.5h-28V26.75z    M56.752,45.167h24.167v12.75H56.752V45.167z M19.083,45.167H43.25v12.75H19.083V45.167z M30.917,82.75H19.083V70.917h11.833V82.75   z M33.417,75.584v-7.167H26.25v-8h19.5V51.75h3v16.667h-6.499v7.167H33.417z M56.585,82.75H44.751V70.917h11.833V82.75z    M59.085,75.584v-7.167H51.25V51.75h3.002v8.667h20.5v8h-7.167v7.167H59.085z M81.918,82.75H70.085V70.917h11.833V82.75z"/><rect x="38.5" y="30.75" width="11.501" height="2.5"/><rect x="55.502" y="28.5" width="4.873" height="2.5"/><rect x="55.502" y="32.5" width="4.873" height="2.5"/><rect x="22.125" y="50.542" width="8.795" height="2.5"/><rect x="35.127" y="48.292" width="3.727" height="2.5"/><rect x="35.127" y="52.292" width="3.727" height="2.5"/><rect x="60.471" y="50.542" width="8.795" height="2.5"/><rect x="73.473" y="48.292" width="3.727" height="2.5"/><rect x="73.473" y="52.292" width="3.727" height="2.5"/><rect x="22.125" y="75.584" width="5.625" height="2.5"/><rect x="47.855" y="75.584" width="5.625" height="2.5"/><rect x="73.189" y="75.584" width="5.625" height="2.5"/></g></svg>