<svg width='200' height='200' fill="#a5da9a" xmlns="http://www.w3.org/2000/svg" xmlns:xlink="http://www.w3.org/1999/xlink" version="1.1" x="0px" y="0px" viewBox="0 0 100 100" enable-background="new 0 0 100 100" xml:space="preserve"><g><path d="M86.179,62.088c-1.159-0.67-2.475-1.022-3.806-1.022c-2.064,0-4.021,0.846-5.438,2.285l-5.9-3.406l9.029-3.131   l-1.249-3.601l-12.144,4.213l-3.783-2.184l3.027-5.244l-3.027-5.243l3.783-2.184l12.144,4.211l1.248-3.6l-9.028-3.13l5.898-3.406   c1.417,1.439,3.375,2.284,5.439,2.284c1.331,0,2.648-0.352,3.805-1.022c1.762-1.018,3.022-2.661,3.551-4.626   c0.526-1.967,0.256-4.02-0.76-5.784c-1.357-2.351-3.889-3.811-6.606-3.811c-1.332,0-2.647,0.352-3.806,1.021   c-1.762,1.018-3.021,2.661-3.55,4.628c-0.357,1.336-0.348,2.715,0.018,4.014l-5.894,3.402l1.802-9.386l-3.74-0.72l-2.427,12.624   l-3.783,2.183l-3.026-5.242h-6.054v-4.367l9.72-8.412l-2.493-2.881l-7.227,6.253V20c3.282-0.849,5.715-3.835,5.715-7.379   c0-4.202-3.418-7.621-7.62-7.621c-4.201,0-7.621,3.42-7.621,7.621c0,3.544,2.433,6.531,5.716,7.379v6.805l-7.226-6.253   l-2.494,2.881l9.72,8.412v4.367h-6.056l-3.028,5.242l-3.781-2.183l-2.425-12.624l-3.743,0.72l1.804,9.386l-5.894-3.402   c0.364-1.298,0.375-2.676,0.018-4.013c-0.528-1.966-1.788-3.609-3.551-4.627c-1.159-0.669-2.474-1.022-3.805-1.022   c-2.718,0-5.246,1.461-6.606,3.812c-2.1,3.64-0.849,8.31,2.791,10.41c1.159,0.668,2.473,1.021,3.805,1.021   c2.066,0,4.023-0.846,5.439-2.283l5.899,3.406l-9.029,3.13l1.249,3.601l12.145-4.213l3.782,2.184l-3.026,5.244l3.027,5.243   l-3.782,2.184l-12.145-4.211l-1.249,3.6l9.029,3.132l-5.898,3.405c-1.417-1.438-3.373-2.284-5.439-2.284   c-1.331,0-2.646,0.353-3.805,1.021c-1.762,1.019-3.022,2.661-3.551,4.628c-0.526,1.967-0.256,4.019,0.761,5.782   c1.357,2.352,3.888,3.812,6.606,3.812c1.331,0,2.647-0.354,3.805-1.021c3.07-1.772,4.44-5.373,3.534-8.641l5.894-3.402   l-1.802,9.385l3.742,0.72l2.425-12.622l3.783-2.184l3.027,5.242h6.056v4.366l-9.722,8.412l2.494,2.88l7.227-6.253v6.804   c-1.307,0.335-2.504,1.015-3.484,1.992c-1.439,1.439-2.233,3.353-2.231,5.389c0,2.036,0.792,3.949,2.231,5.389   C46.052,94.208,47.964,95,50,95c4.203,0,7.621-3.419,7.621-7.62c0-3.544-2.433-6.532-5.717-7.381v-6.805l7.227,6.253l2.494-2.88   l-9.721-8.412v-4.366h6.056l3.026-5.243l3.783,2.184l2.426,12.623l3.741-0.721l-1.802-9.385l5.894,3.401   c-0.363,1.299-0.375,2.677-0.018,4.014c0.527,1.967,1.788,3.61,3.552,4.628c1.157,0.668,2.472,1.021,3.803,1.021   c2.719,0,5.248-1.461,6.607-3.812c1.018-1.761,1.286-3.815,0.759-5.782C89.2,64.749,87.939,63.104,86.179,62.088z M78.688,30.32   c0.262-0.982,0.894-1.803,1.773-2.313c0.58-0.335,1.238-0.511,1.901-0.511c1.359,0,2.626,0.729,3.305,1.906   c0.509,0.881,0.646,1.907,0.382,2.891s-0.894,1.804-1.775,2.313c-0.578,0.335-1.237,0.512-1.9,0.512   c-1.358,0-2.625-0.73-3.306-1.906C78.56,32.332,78.422,31.305,78.688,30.32z M46.186,12.618c0-2.1,1.709-3.81,3.811-3.81   c2.1,0,3.811,1.709,3.811,3.81c0,2.102-1.711,3.81-3.811,3.81C47.897,16.428,46.186,14.721,46.186,12.618z M20.926,33.213   c-0.679,1.174-1.945,1.907-3.306,1.907c-0.663,0-1.32-0.176-1.901-0.511c-1.819-1.052-2.444-3.387-1.394-5.205   c0.679-1.176,1.945-1.908,3.306-1.908c0.663,0,1.319,0.177,1.899,0.512c0.882,0.509,1.512,1.331,1.775,2.314   C21.571,31.305,21.435,32.332,20.926,33.213z M19.533,71.986c-0.58,0.334-1.237,0.511-1.9,0.511c-1.36,0-2.626-0.73-3.306-1.907   c-0.509-0.881-0.645-1.908-0.381-2.891c0.264-0.983,0.894-1.806,1.776-2.314c0.579-0.335,1.237-0.512,1.9-0.512   c1.36,0,2.625,0.73,3.306,1.906C21.977,68.602,21.352,70.937,19.533,71.986z M53.808,87.377c0,2.1-1.711,3.809-3.811,3.809   c-1.018,0-1.976-0.395-2.694-1.116c-0.721-0.721-1.117-1.676-1.117-2.692c0-1.02,0.396-1.977,1.117-2.694   c0.719-0.721,1.677-1.116,2.694-1.116C52.097,83.566,53.808,85.272,53.808,87.377z M61.517,49.997l-1.928,3.338l-5.781-3.338   l5.782-3.338L61.517,49.997z M55.758,40.021l1.927,3.338l-5.782,3.339v-6.677H55.758z M44.238,40.021h3.854v6.677l-5.782-3.339   L44.238,40.021z M38.478,49.997l1.928-3.338l5.781,3.338l-5.781,3.338L38.478,49.997z M44.238,59.974l-1.928-3.339l5.782-3.338   v6.677H44.238L44.238,59.974z M55.758,59.974h-3.855v-6.677l5.782,3.338L55.758,59.974z M85.667,70.592   c-0.679,1.175-1.944,1.906-3.305,1.906c-0.663,0-1.319-0.176-1.901-0.511c-0.88-0.509-1.512-1.331-1.773-2.314   c-0.266-0.983-0.131-2.011,0.38-2.892c0.681-1.174,1.944-1.907,3.306-1.907c0.663,0,1.32,0.176,1.9,0.511   c0.882,0.509,1.512,1.331,1.775,2.314C86.31,68.683,86.176,69.71,85.667,70.592z"/></g></svg>