<svg width='200' height='200' fill="#000000" xmlns="http://www.w3.org/2000/svg" xmlns:xlink="http://www.w3.org/1999/xlink" version="1.1" x="0px" y="0px" viewBox="0 0 90 90" enable-background="new 0 0 90 90" xml:space="preserve"><g><path fill-rule="evenodd" clip-rule="evenodd" fill="#000000" d="M515.65,321.4c1.333-1.301,3-1.983,5-2.051   c2,0.067,3.649,0.767,4.949,2.101c1.301,1.366,1.983,3.066,2.051,5.1c-0.067,1.9-0.75,3.5-2.051,4.8   c-1.3,1.267-2.949,1.934-4.949,2c-2-0.066-3.667-0.733-5-2c-1.367-1.333-2.067-2.966-2.101-4.899   C513.583,324.417,514.283,322.733,515.65,321.4z M535.15,321.4c1.333-1.301,3-1.983,5-2.051c2,0.067,3.649,0.767,4.949,2.101   c1.301,1.366,1.983,3.066,2.051,5.1c-0.067,1.9-0.75,3.5-2.051,4.8c-1.3,1.267-2.949,1.934-4.949,2c-2-0.066-3.667-0.733-5-2   c-1.367-1.333-2.067-2.966-2.101-4.899C533.083,324.417,533.783,322.733,535.15,321.4z M554.65,321.4c1.333-1.301,3-1.983,5-2.051   c2,0.067,3.649,0.767,4.949,2.101c1.301,1.366,1.983,3.066,2.051,5.1c-0.067,1.9-0.75,3.5-2.051,4.8   c-1.3,1.267-2.949,1.934-4.949,2c-2-0.066-3.667-0.733-5-2c-1.367-1.333-2.067-2.966-2.101-4.899   C552.583,324.417,553.283,322.733,554.65,321.4z"/></g><g><path fill="#000000" d="M173.75-150.225c-2.732,0-5.205-1.028-7.151-2.974c-1.945-1.945-2.974-4.4-2.974-7.101   c0-2.734,1.028-5.207,2.975-7.152c1.945-1.945,4.418-2.974,7.15-2.974c2.766,0,5.255,1.028,7.201,2.974   c1.945,1.945,2.974,4.417,2.974,7.151c0,2.701-1.028,5.156-2.975,7.102C179.005-151.253,176.516-150.225,173.75-150.225z    M173.75-163.775c-0.983,0-1.739,0.316-2.448,1.026c-0.71,0.709-1.026,1.465-1.026,2.449c0,0.95,0.316,1.689,1.025,2.398   c0.71,0.71,1.466,1.026,2.449,1.026c1.019,0,1.789-0.316,2.498-1.026c0.71-0.709,1.026-1.449,1.026-2.399   c0-0.984-0.316-1.74-1.025-2.449C175.539-163.458,174.769-163.775,173.75-163.775z M144.2-150.225   c-2.732,0-5.205-1.028-7.151-2.974c-1.945-1.945-2.974-4.4-2.974-7.101c0-2.734,1.028-5.207,2.975-7.152   c1.945-1.945,4.418-2.974,7.15-2.974s5.205,1.028,7.151,2.974c1.945,1.946,2.974,4.419,2.974,7.151   c0,2.699-1.028,5.155-2.974,7.101C149.405-151.253,146.933-150.225,144.2-150.225z M144.2-163.775   c-0.983,0-1.739,0.316-2.448,1.026c-0.71,0.709-1.026,1.465-1.026,2.449c0,0.95,0.316,1.689,1.025,2.398   c0.71,0.71,1.466,1.026,2.449,1.026s1.739-0.316,2.448-1.026c0.71-0.71,1.026-1.45,1.026-2.399c0-0.984-0.316-1.739-1.026-2.45   C145.939-163.458,145.184-163.775,144.2-163.775z M128.147-170.875c-1.76,0-3.229-1.382-3.318-3.159   c-0.091-1.834,1.321-3.395,3.155-3.487l5.378-0.269l-1.778-4.522c-0.018-0.041-0.034-0.083-0.05-0.125l-3.792-9.455   c-0.025-0.058-0.048-0.117-0.069-0.176l-3.72-9.522c-0.4-1.023-0.269-2.178,0.351-3.085c0.62-0.907,1.647-1.45,2.746-1.45h50.9   c0.995,0,1.938,0.446,2.569,1.215c0.632,0.769,0.886,1.78,0.692,2.756l-1.889,9.54c-0.009,0.049-0.019,0.097-0.029,0.146   l-1.924,9.47c-0.008,0.042-0.016,0.084-0.025,0.125l-0.98,4.848h1.415l7.162-35.433c0.313-1.551,1.677-2.667,3.259-2.667H201   c1.836,0,3.325,1.489,3.325,3.325s-1.489,3.325-3.325,3.325h-10.079l-7.162,35.433c-0.313,1.551-1.677,2.667-3.259,2.667h-8.132   c-0.044,0-0.088,0-0.13,0h-34.005l-9.917,0.496C128.26-170.876,128.204-170.875,128.147-170.875z M140.416-178.025h29.164   l0.455-2.25h-30.504L140.416-178.025z M136.899-186.925h34.482l0.6-2.95h-36.266L136.899-186.925z M133.07-196.525h40.248   l0.584-2.949h-41.984L133.07-196.525z"/></g><g><path fill="#000000" d="M65.55-151.525c-10.933,0-20.404-3.928-28.151-11.674c-4.644-4.5-7.944-9.745-9.771-15.554   c-0.551-1.751,0.422-3.618,2.174-4.169c1.749-0.551,3.618,0.422,4.169,2.174c1.491,4.742,4.214,9.052,8.092,12.81   c6.583,6.581,14.252,9.762,23.486,9.762c9.335,0,17.054-3.181,23.6-9.726c2.154-2.122,3.943-4.411,5.356-6.852l-6.943,1.864   c-1.778,0.473-3.598-0.577-4.073-2.35c-0.477-1.773,0.575-3.597,2.349-4.073l13.561-3.639c0.108-0.031,0.219-0.056,0.331-0.075   c0.636-0.111,1.27-0.032,1.834,0.2c0.162,0.066,0.318,0.146,0.467,0.236c0.678,0.413,1.209,1.067,1.453,1.881l4.697,15.388   c0.535,1.756-0.454,3.615-2.21,4.151c-1.757,0.538-3.615-0.454-4.15-2.209l-2.151-7.049c-1.604,2.578-3.552,5-5.837,7.248   C86.104-155.453,76.583-151.525,65.55-151.525z M101.349-201.375c-1.419,0-2.732-0.915-3.175-2.341   c-1.46-4.708-4.184-9.033-8.097-12.856c-6.573-6.572-14.243-9.753-23.478-9.753c-9.368,0-17.104,3.181-23.648,9.726   c-2.105,2.139-3.876,4.444-5.295,6.891l6.936-1.854c1.774-0.477,3.596,0.58,4.071,2.353c0.475,1.774-0.579,3.597-2.354,4.071   l-13.612,3.64c-0.105,0.029-0.212,0.054-0.321,0.073c-0.634,0.113-1.264,0.036-1.828-0.194c-0.182-0.074-0.357-0.164-0.522-0.269   c-0.657-0.414-1.172-1.059-1.411-1.856l-4.695-15.385c-0.536-1.756,0.453-3.615,2.209-4.151c1.759-0.536,3.614,0.453,4.151,2.209   l2.17,7.111c1.6-2.59,3.531-5.038,5.78-7.323c7.765-7.765,17.303-11.692,28.369-11.692c10.934,0,20.405,3.928,28.151,11.674   c4.687,4.578,7.984,9.841,9.774,15.617c0.544,1.754-0.438,3.617-2.191,4.16C102.007-201.423,101.675-201.375,101.349-201.375z"/></g><g><path fill="#000000" d="M45.7-41.375H8.4c-1.836,0-3.325-1.489-3.325-3.325V-82c0-1.836,1.489-3.325,3.325-3.325   s3.325,1.489,3.325,3.325v28.302l61.863-61.477H44.3c-1.836,0-3.325-1.489-3.325-3.325s1.489-3.325,3.325-3.325H81.65   c0.447,0,0.874,0.088,1.264,0.249c0.384,0.158,0.743,0.39,1.058,0.696c0.001,0.001,0.003,0.002,0.003,0.002   c0.026,0.026,0.052,0.052,0.077,0.078c0.294,0.307,0.519,0.657,0.672,1.028c0.159,0.384,0.248,0.805,0.252,1.247   c-0.001,0.001-0.001,0.002,0,0.005c0,0.001,0,0.003,0,0.005c-0.001,0.003-0.001,0.003,0,0.005c-0.001,0.001-0.001,0.002,0,0.005   c0,0.001,0,0.002,0,0.004v0.001V-81.2c0,1.836-1.489,3.325-3.325,3.325s-3.325-1.489-3.325-3.325v-29.308L15.451-48.025H45.7   c1.836,0,3.325,1.489,3.325,3.325S47.536-41.375,45.7-41.375z"/></g><g><path fill="#000000" d="M268.1-139.875c-0.85,0-1.699-0.324-2.349-0.971c-1.3-1.297-1.303-3.402-0.005-4.702l14.96-14.997   l-71.665-0.18c-1.836-0.005-3.321-1.497-3.316-3.333c0.005-1.833,1.493-3.317,3.325-3.317c0.003,0,0.006,0,0.009,0l71.594,0.18   l-14.904-14.904c-1.298-1.298-1.298-3.404,0-4.702c1.299-1.299,3.404-1.299,4.703,0l20.601,20.6   c0.319,0.319,0.56,0.688,0.723,1.081c0.162,0.394,0.252,0.826,0.251,1.278c0,0.001,0,0.003,0,0.004c-0.001,0-0.001,0.002,0,0.004   c0,0,0,0,0,0.001c-0.001,0.002-0.001,0.005,0,0.005c0,0.001,0,0.003,0,0.004c0,0,0,0,0,0c-0.004,0.431-0.09,0.843-0.242,1.22   c-0.162,0.4-0.405,0.776-0.729,1.101l-20.601,20.65C269.804-140.201,268.952-139.875,268.1-139.875z"/></g><g><path fill="#000000" d="M321.05,1.125c-1.616,0-3.108-0.337-4.438-1.001c-0.984-0.518-1.843-1.153-2.611-1.92   c-1.904-1.855-2.926-4.304-2.926-7.054c0-2.7,1.011-5.139,2.923-7.051c1.941-1.891,4.369-2.875,7.052-2.875   c0.419,0,0.832,0.024,1.24,0.071l14.978-29.826c-1.828-1.861-2.793-4.249-2.793-6.92c0-2.7,1.012-5.138,2.924-7.051   c1.881-1.88,4.318-2.874,7.052-2.874c2.683,0,5.11,0.983,7.02,2.843c1.922,1.971,2.905,4.398,2.905,7.082   c0,2.667-0.946,5.053-2.738,6.914l7.478,14.805c0.971-0.129,2.011-0.125,2.979,0.016l15.049-30.012   c-1.648-1.841-2.518-4.119-2.518-6.622c0-2.75,1.022-5.199,2.956-7.082c1.88-1.882,4.318-2.893,7.019-2.893h0.351   c0.055,0,0.109,0.001,0.165,0.004c2.524,0.125,4.724,1.107,6.536,2.92c1.902,1.854,2.924,4.302,2.924,7.051   c0,1.847-0.464,3.552-1.379,5.068c-0.391,0.674-0.921,1.358-1.545,1.983c-0.025,0.025-0.051,0.05-0.077,0.074   c-0.73,0.685-1.524,1.267-2.36,1.731c-0.057,0.031-0.113,0.061-0.172,0.089c-1.349,0.65-2.844,0.979-4.442,0.979   c-0.553,0-1.092-0.04-1.614-0.118l-15.026,29.967c1.681,1.853,2.566,4.15,2.566,6.676c0,2.749-1.021,5.197-2.955,7.081   c-0.718,0.719-1.538,1.344-2.406,1.826c-0.057,0.031-0.113,0.061-0.172,0.089c-1.349,0.65-2.844,0.979-4.442,0.979   c-1.614,0-3.106-0.337-4.436-1c-0.989-0.521-1.848-1.156-2.614-1.923c-1.903-1.854-2.925-4.302-2.925-7.052   c0-2.564,0.912-4.893,2.642-6.758l-7.519-14.886c-0.816,0.092-1.682,0.091-2.49,0.002l-14.96,29.791   c1.817,1.89,2.777,4.271,2.777,6.901c0,2.749-1.021,5.198-2.955,7.082c-0.701,0.702-1.48,1.313-2.288,1.786   c-0.091,0.054-0.185,0.103-0.281,0.147C324.132,0.802,322.634,1.125,321.05,1.125z M321.05-12.125c-0.967,0-1.7,0.295-2.38,0.957   c-0.644,0.644-0.944,1.368-0.944,2.318c0,0.967,0.291,1.682,0.944,2.319c0.329,0.329,0.64,0.561,0.979,0.739   c0.341,0.169,0.819,0.267,1.401,0.267c0.557,0,1.05-0.09,1.503-0.276c0.276-0.179,0.561-0.414,0.846-0.699   c0.686-0.667,0.977-1.383,0.977-2.349c0-0.932-0.29-1.647-0.939-2.312c-0.287-0.265-0.587-0.489-0.893-0.67   C322.08-12.029,321.591-12.125,321.05-12.125z M358.95-26.808c-0.272,0.144-0.518,0.327-0.749,0.559   c-0.675,0.675-0.976,1.399-0.976,2.349c0,0.967,0.291,1.682,0.944,2.318c0.329,0.329,0.641,0.561,0.979,0.74   c0.34,0.168,0.818,0.266,1.4,0.266c0.562,0,1.044-0.092,1.472-0.281c0.298-0.177,0.592-0.41,0.876-0.694   c0.687-0.668,0.978-1.384,0.978-2.35c0-0.929-0.288-1.643-0.935-2.307c-0.263-0.239-0.531-0.444-0.798-0.61   c-0.921-0.484-2.281-0.48-3.171-0.003C358.964-26.816,358.957-26.812,358.95-26.808z M342.967-52.41   c0.762,0.368,2.076,0.393,2.955,0.003c0.297-0.176,0.593-0.41,0.88-0.697c0.638-0.638,0.923-1.362,0.923-2.347   c0-0.967-0.295-1.701-0.956-2.379c-0.617-0.6-1.352-0.895-2.318-0.895c-0.984,0-1.709,0.286-2.349,0.926   c-0.676,0.675-0.977,1.399-0.977,2.349c0,0.966,0.291,1.682,0.945,2.319c0.036,0.035,0.071,0.07,0.105,0.107   C342.415-52.769,342.674-52.568,342.967-52.41z M383.143-67.368c0.783,0.386,2.063,0.396,2.932,0.011   c0.313-0.184,0.618-0.412,0.91-0.681c0.201-0.206,0.366-0.418,0.489-0.631c0.317-0.527,0.451-1.045,0.451-1.682   c0-0.966-0.291-1.681-0.945-2.318c-0.648-0.647-1.297-0.951-2.124-1.006H384.6c-0.949,0-1.673,0.301-2.348,0.976   c-0.686,0.668-0.977,1.383-0.977,2.349c0,0.95,0.301,1.674,0.976,2.349c0.184,0.184,0.409,0.351,0.673,0.5   c0.018,0.011,0.036,0.021,0.055,0.032C383.034-67.438,383.089-67.404,383.143-67.368z"/></g><g><path fill="#000000" d="M-0.7-161.775h-40.65c-5.4,0-8.625-3.225-8.625-8.625V-211c0-5.37,3.225-8.575,8.625-8.575h1.525V-229.8   c0-5.168,1.846-9.614,5.487-13.214c3.619-3.619,8.061-5.461,13.188-5.461c4.965,0,9.304,1.74,12.896,5.171   c1.328,1.268,1.376,3.373,0.108,4.701c-1.268,1.328-3.373,1.376-4.701,0.108c-2.346-2.24-5.062-3.329-8.304-3.329   c-3.346,0-6.126,1.153-8.499,3.526c-2.377,2.351-3.526,5.126-3.526,8.499v10.225H-0.7c5.37,0,8.575,3.206,8.575,8.575v40.6   C7.875-165,4.669-161.775-0.7-161.775z M-41.35-212.925c-1.698,0-1.975,0.27-1.975,1.925v40.6c0,1.698,0.277,1.975,1.975,1.975   H-0.7c1.655,0,1.925-0.277,1.925-1.975V-211c0-1.655-0.27-1.925-1.925-1.925H-41.35z M-9.9-174.725h-22.6   c-1.147,0-2.213-0.591-2.82-1.564s-0.671-2.189-0.167-3.22l6.292-12.886c-1.168-1.646-1.779-3.574-1.779-5.655   c0-2.65,0.966-5.043,2.793-6.92c0.021-0.021,0.041-0.041,0.062-0.062c1.909-1.86,4.302-2.844,6.92-2.844   c2.667,0,5.071,0.994,6.951,2.874s2.874,4.284,2.874,6.951c0,2.074-0.616,3.995-1.796,5.635l6.263,12.914   c0.5,1.03,0.434,2.245-0.174,3.216S-8.755-174.725-9.9-174.725z M-27.176-181.375h11.969l-4.934-10.174   c-0.618-1.274-0.361-2.8,0.641-3.802c0.194-0.194,0.405-0.39,0.632-0.584c0.583-0.616,0.844-1.273,0.844-2.114   c0-0.915-0.286-1.608-0.926-2.249c-0.641-0.64-1.334-0.926-2.249-0.926c-0.883,0-1.578,0.286-2.247,0.925   c-0.606,0.636-0.877,1.332-0.877,2.25c0,0.848,0.25,1.509,0.806,2.123l0.448,0.374c1.176,0.98,1.53,2.637,0.858,4.013   L-27.176-181.375z"/></g><g><path fill="#000000" d="M501.95-16.975h-73.2c-1.836,0-3.325-1.489-3.325-3.325v-73c0-1.836,1.489-3.325,3.325-3.325H462   c1.836,0,3.325,1.489,3.325,3.325s-1.489,3.325-3.325,3.325h-29.925v66.35h66.55V-51.5c0-1.836,1.489-3.325,3.325-3.325   s3.325,1.489,3.325,3.325v31.2C505.275-18.463,503.786-16.975,501.95-16.975z M468.4-55.675c-0.854,0-1.706-0.327-2.356-0.979   c-1.296-1.301-1.291-3.407,0.011-4.703l28.646-28.522l-17.981,0.103c-0.007,0-0.014,0-0.02,0c-1.828,0-3.314-1.476-3.325-3.306   c-0.011-1.836,1.47-3.333,3.306-3.344l26.099-0.15c0.001,0,0.002,0,0.003,0h0.001c0.002,0,0.004,0,0.006,0c0,0,0.003,0,0.005,0   h0.001c0.002,0,0.003,0,0.005,0l0,0l0,0c0,0,0.003,0,0.005,0s0.005,0,0.005,0c0.002,0,0.004,0,0.006,0c0.003,0,0.002,0.001,0.005,0   c0.002,0,0.003,0,0.005,0s0.003,0,0.005,0s0.004,0,0.006,0c0,0,0.003,0,0.005,0s0.002,0,0.006,0l0,0c0.002,0,0.004,0,0.005,0l0,0   c0.825,0.013,1.646,0.331,2.28,0.955l0,0c0.001,0,0.002,0.003,0.005,0.004c0,0,0,0.001,0.001,0.001   c0.01,0.01,0.021,0.021,0.031,0.031c0.002,0.002,0.004,0.004,0.005,0.006c0.001,0,0.001,0.001,0.001,0.001   c0.001,0,0.002,0.001,0.002,0.002c0.651,0.666,0.967,1.537,0.947,2.402l-0.6,28.892c-0.038,1.836-1.6,3.277-3.394,3.255   c-1.836-0.038-3.293-1.557-3.255-3.393l0.429-20.659l-28.559,28.434C470.098-55.998,469.249-55.675,468.4-55.675z"/></g><g><path fill="#000000" d="M614.9-8.125h-50.45c-1.836,0-3.325-1.489-3.325-3.325s1.489-3.325,3.325-3.325h20.925v-12.199H550.7   c-1.836,0-3.325-1.489-3.325-3.325v-48.05c0-1.836,1.489-3.325,3.325-3.325H626.6c1.836,0,3.325,1.489,3.325,3.325v48.05   c0,1.836-1.489,3.325-3.325,3.325h-34.574v12.199H614.9c1.836,0,3.325,1.489,3.325,3.325S616.736-8.125,614.9-8.125z M588.7-33.625   h34.574v-41.4h-69.249v41.4H588.7z M583.15-39.875H561.35c-1.836,0-3.325-1.489-3.325-3.325v-23.95   c0-1.836,1.489-3.325,3.325-3.325h21.801c1.836,0,3.325,1.489,3.325,3.325v23.95C586.476-41.364,584.986-39.875,583.15-39.875z    M564.675-46.525h15.15v-17.299h-15.15V-46.525z M615.2-41.525h-20.75c-1.836,0-3.325-1.489-3.325-3.325s1.489-3.325,3.325-3.325   h20.75c1.836,0,3.325,1.489,3.325,3.325S617.036-41.525,615.2-41.525z M615.2-52.425h-20.75c-1.836,0-3.325-1.489-3.325-3.325   s1.489-3.325,3.325-3.325h20.75c1.836,0,3.325,1.489,3.325,3.325S617.036-52.425,615.2-52.425z M615.2-63.375h-20.75   c-1.836,0-3.325-1.489-3.325-3.325s1.489-3.325,3.325-3.325h20.75c1.836,0,3.325,1.489,3.325,3.325S617.036-63.375,615.2-63.375z"/></g><g><path fill="#000000" d="M618.101,110.825c-1.042,0-2.048-0.49-2.687-1.365c-0.857-1.174-0.853-2.768,0.012-3.937   c3.565-4.823,5.299-10.376,5.299-16.974c0-1.113-0.047-2.208-0.142-3.274H575.7c-1.836,0-3.325-1.489-3.325-3.325V35   c0-1.836,1.489-3.325,3.325-3.325h72.75c1.836,0,3.325,1.489,3.325,3.325v46.95c0,1.836-1.489,3.325-3.325,3.325h-9.344   c-1.017,6.397-3.646,12.087-7.839,16.946c-3.555,4.078-7.622,6.91-12.101,8.428C618.816,110.768,618.456,110.825,618.101,110.825z    M579.025,78.625H623.5c1.616,0,2.998,1.162,3.275,2.754c0.397,2.279,0.6,4.692,0.6,7.171c0,3.255-0.371,6.356-1.11,9.29   c3.936-4.57,6.088-9.855,6.57-16.144c0.133-1.733,1.578-3.071,3.315-3.071h8.975v-40.3h-66.1V78.625z M632.3,70.976h-38.55   c-1.836,0-3.325-1.489-3.325-3.325s1.489-3.325,3.325-3.325h38.55c1.836,0,3.325,1.489,3.325,3.325S634.136,70.976,632.3,70.976z    M632.3,61.226h-38.55c-1.836,0-3.325-1.489-3.325-3.325s1.489-3.325,3.325-3.325h38.55c1.836,0,3.325,1.489,3.325,3.325   S634.136,61.226,632.3,61.226z M632.3,51.476h-38.55c-1.836,0-3.325-1.489-3.325-3.325s1.489-3.325,3.325-3.325h38.55   c1.836,0,3.325,1.489,3.325,3.325S634.136,51.476,632.3,51.476z"/></g><g><path fill="#000000" d="M533.55,91.226c-0.848,0-1.696-0.322-2.345-0.968l-26.267-26.129c-5.661,4.645-12.337,6.996-19.889,6.996   c-8.711,0-16.264-3.137-22.451-9.323c-6.153-6.154-9.273-13.708-9.273-22.452c0-8.527,3.011-15.936,8.948-22.023   c0.099-0.134,0.208-0.26,0.325-0.378c6.188-6.187,13.74-9.324,22.451-9.324c8.71,0,16.264,3.137,22.451,9.323   c6.156,6.194,9.274,13.729,9.274,22.402c0,7.657-2.393,14.401-7.119,20.091l26.238,26.102c1.302,1.295,1.308,3.4,0.013,4.702   C535.258,90.898,534.403,91.226,533.55,91.226z M467.509,21.446c-0.107,0.138-0.224,0.27-0.35,0.396   c-4.832,4.892-7.184,10.62-7.184,17.508c0,7.013,2.396,12.82,7.326,17.749c4.963,4.964,10.769,7.376,17.748,7.376   c6.95,0,12.726-2.382,17.656-7.283c0.006-0.006,0.013-0.013,0.02-0.02l0.108-0.106c4.895-4.896,7.291-10.702,7.291-17.715   c0-6.95-2.398-12.742-7.333-17.707c-4.957-4.956-10.763-7.368-17.742-7.368C478.167,14.275,472.426,16.621,467.509,21.446z"/></g><g><path fill="#000000" d="M539.4,208.375H464.6c-1.836,0-3.325-1.489-3.325-3.325V130.4c0-1.836,1.489-3.325,3.325-3.325H539.4   c1.836,0,3.325,1.489,3.325,3.325v74.649C542.726,206.886,541.236,208.375,539.4,208.375z M467.925,201.725h68.15v-67.999h-68.15   V201.725z M501.5,195.125h-24.95c-1.836,0-3.325-1.489-3.325-3.325V166.9c0-1.836,1.489-3.325,3.325-3.325h24.95   c1.836,0,3.325,1.489,3.325,3.325V191.8C504.825,193.636,503.336,195.125,501.5,195.125z M479.875,188.475h18.3v-18.249h-18.3   V188.475z M527.75,165.726c-1.836,0-3.325-1.489-3.325-3.325v-12.7l-12.2,11.928c-1.312,1.281-3.418,1.259-4.702-0.054   c-1.283-1.313-1.26-3.418,0.054-4.702l12.017-11.747H508.8c-1.836,0-3.325-1.489-3.325-3.325s1.489-3.325,3.325-3.325h18.95   c0.002,0,0.003,0,0.005,0c0,0,0.003,0,0.005,0c0,0,0.003,0,0.005,0c0.001,0,0.003,0,0.005,0l0,0   c0.829,0.005,1.585,0.313,2.165,0.818c0.165,0.145,0.317,0.306,0.452,0.481c0.384,0.499,0.63,1.11,0.679,1.776   c0.007,0.092,0.011,0.184,0.01,0.274V162.4C531.075,164.236,529.586,165.726,527.75,165.726z"/></g><g><path fill="#000000" d="M399.283,96.216c-3.406,0-6.839-0.488-10.29-1.467c-9.987-2.916-17.551-8.933-22.503-17.891   c-5.05-9.044-6.209-18.623-3.44-28.459c2.917-9.883,8.868-17.435,17.7-22.486c0.325-0.186,0.678-0.315,1.043-0.383   c1.537-0.49,3.238,0.197,3.98,1.683c0.821,1.642,0.156,3.64-1.486,4.461c-0.224,0.112-0.453,0.203-0.686,0.273   c-7.14,4.217-11.775,10.207-14.163,18.293c-2.295,8.154-1.361,15.818,2.865,23.388c4.137,7.482,10.195,12.297,18.528,14.729   c7.471,2.115,14.572,1.496,21.683-1.907c0.446-0.224,0.927-0.492,1.377-0.772c0.05-0.031,0.101-0.062,0.152-0.09   c7.595-4.192,12.422-10.227,14.758-18.448c2.307-8.257,1.404-15.961-2.765-23.538c-0.473-0.856-0.984-1.685-1.521-2.461   c-2.609-3.808-5.857-6.833-9.663-9.003c-1.595-0.91-2.15-2.94-1.241-4.535c0.91-1.595,2.94-2.15,4.536-1.241   c4.687,2.672,8.672,6.376,11.846,11.009c0.655,0.947,1.287,1.969,1.868,3.023c4.981,9.054,6.104,18.659,3.341,28.55   c-2.802,9.862-8.813,17.402-17.869,22.425c-0.604,0.373-1.241,0.728-1.896,1.055C410.156,94.952,404.755,96.216,399.283,96.216z    M399.3,60.375c-1.836,0-3.325-1.489-3.325-3.325v-39.2c0-1.836,1.489-3.325,3.325-3.325s3.325,1.489,3.325,3.325v39.2   C402.625,58.886,401.136,60.375,399.3,60.375z"/></g><g><path fill="#000000" d="M416.15,366.476H358.2c-1.836,0-3.325-1.489-3.325-3.325V320.05c0-1.836,1.489-3.325,3.325-3.325h12.55   c1.836,0,3.325,1.489,3.325,3.325s-1.489,3.325-3.325,3.325h-9.225v36.45h51.3v-36.45h-8.775c-1.836,0-3.325-1.489-3.325-3.325   s1.489-3.325,3.325-3.325h12.101c1.836,0,3.325,1.489,3.325,3.325v43.101C419.476,364.986,417.986,366.476,416.15,366.476z    M382.446,343.575c-1.651,0-3.084-1.229-3.295-2.91c-0.117-0.931-0.177-1.928-0.177-2.965c0-3.752,0.479-7.367,1.423-10.745   c1.734-6.538,5.221-12.476,10.351-17.606c7.82-7.783,17.22-11.726,27.944-11.726c0.146,0,0.293,0.001,0.44,0.002   c3.275-0.055,6.421,0.261,9.435,0.938l-3.54-6.528c-0.875-1.614-0.276-3.633,1.338-4.508c1.614-0.878,3.631-0.276,4.508,1.338   l7.696,14.192c0.399,0.731,0.495,1.55,0.328,2.307c-0.048,0.222-0.119,0.438-0.213,0.646c-0.24,0.537-0.625,1.016-1.136,1.37   c-0.095,0.065-0.191,0.125-0.291,0.181l-12.364,7.029c-1.598,0.908-3.628,0.349-4.534-1.247c-0.907-1.597-0.349-3.627,1.247-4.534   l6.278-3.569c-2.746-0.692-5.67-1.007-8.73-0.966c-0.129-0.001-0.259-0.002-0.387-0.002c-9.105,0-16.71,3.203-23.322,9.784   c-4.285,4.285-7.191,9.215-8.632,14.646c-0.793,2.838-1.188,5.852-1.188,8.998c0,0.76,0.042,1.479,0.124,2.135   c0.229,1.822-1.062,3.485-2.884,3.714C382.725,343.566,382.584,343.575,382.446,343.575z"/></g><g><path fill="#000000" d="M548.451,390.625c-1.045,0-2.054-0.493-2.691-1.372c-0.854-1.175-0.845-2.769,0.021-3.936   c4.442-5.983,6.694-13.172,6.694-21.367c0-1.635-0.084-3.232-0.252-4.775H496.3c-1.836,0-3.325-1.489-3.325-3.325v-57.8   c0-1.836,1.489-3.325,3.325-3.325h89.5c1.836,0,3.325,1.489,3.325,3.325v57.8c0,1.836-1.489,3.325-3.325,3.325h-12.126   c-1.161,7.99-4.387,15.077-9.612,21.103c-4.234,4.93-9.134,8.356-14.554,10.175C549.16,390.568,548.804,390.625,548.451,390.625z    M499.625,352.524H555.1c1.606,0,2.984,1.149,3.271,2.73c0.5,2.751,0.754,5.677,0.754,8.695c0,5.068-0.742,9.825-2.217,14.236   c0.725-0.701,1.432-1.452,2.119-2.254c5.012-5.779,7.742-12.429,8.357-20.341c0.135-1.731,1.579-3.067,3.315-3.067h11.774v-51.149   h-82.85V352.524z"/></g><g><path fill="#000000" d="M55.903,351.477c-0.272,0-0.543-0.034-0.806-0.1c-0.122-0.03-0.242-0.067-0.361-0.112   c-0.126-0.047-0.249-0.102-0.368-0.163l-22.774-11.457l-22.79,10.619c-1.031,0.479-2.234,0.4-3.191-0.21   c-0.958-0.61-1.538-1.668-1.538-2.804v-41.1c0-1.258,0.71-2.408,1.835-2.973l17.504-8.773c-0.738-2.167-1.221-4.456-1.426-6.809   c-0.5-5.552,0.811-10.713,3.896-15.341c2.727-4.069,6.366-7.085,10.823-8.968c4.526-1.857,9.217-2.322,13.977-1.401   c4.776,1.009,8.885,3.229,12.269,6.612c0.052,0.053,0.104,0.107,0.152,0.164l1.398,1.598c3.141,3.689,4.934,8.001,5.36,12.85   c0.373,4.676-0.356,9.162-2.168,13.378l10.963-5.508c1.029-0.52,2.256-0.466,3.238,0.141c0.982,0.605,1.58,1.677,1.58,2.83v42   c0,1.257-0.708,2.405-1.831,2.971l-24.237,12.193c-0.044,0.022-0.087,0.043-0.131,0.063l0,0c-0.001,0-0.001,0-0.002,0   C56.831,351.38,56.363,351.477,55.903,351.477z M34.975,333.901l17.6,8.854v-21.001l-3.303,5.303   c-0.603,0.967-1.657,1.559-2.797,1.567c-1.174,0.016-2.203-0.566-2.82-1.523c-0.97-1.506-1.924-2.995-2.861-4.467   c-1.903-3.023-3.853-6.041-5.819-9.007V333.901z M59.226,311.089v31.667l17.6-8.854v-34.56l-14.887,7.479   C61.01,308.24,60.101,309.67,59.226,311.089z M10.725,308.203v33.829l17.6-8.201v-30.197c-0.549-0.848-1.082-1.663-1.605-2.46   c-0.165-0.247-0.325-0.496-0.48-0.747L10.725,308.203z M34.457,300.868c1.472,2.224,2.962,4.459,4.453,6.679   c2.538,3.773,5.062,7.652,7.501,11.527l4.816-7.732c0.595-0.956,1.206-1.932,1.834-2.923c0.014-0.022,0.027-0.044,0.041-0.065   c1.132-1.856,2.354-3.783,3.609-5.688c0.077-0.148,0.166-0.292,0.265-0.43c1.468-2.32,2.847-4.768,4.1-7.273   c1.772-3.575,2.48-7.274,2.159-11.298c-0.305-3.469-1.538-6.44-3.768-9.06l-1.295-1.479c-2.475-2.448-5.357-3.993-8.811-4.723   c-3.456-0.668-6.781-0.34-10.101,1.022c-3.255,1.376-5.833,3.514-7.849,6.524c-2.25,3.375-3.167,6.991-2.801,11.051   c0,0.004,0,0.007,0.001,0.011c0.231,2.653,0.917,5.196,2.038,7.555c0.024,0.051,0.047,0.102,0.068,0.152   c0.444,0.982,0.953,1.894,1.548,2.786c0.709,1.081,1.421,2.174,2.149,3.3C34.43,300.825,34.444,300.847,34.457,300.868z    M45.8,298.075c-3.646,0-6.782-1.311-9.321-3.896c-2.543-2.497-3.854-5.633-3.854-9.279c0-3.597,1.3-6.722,3.863-9.29   c2.538-2.578,5.67-3.886,9.312-3.886c3.59,0,6.729,1.297,9.331,3.854c2.564,2.608,3.845,5.731,3.845,9.321   c0,3.635-1.287,6.764-3.825,9.301C52.529,296.778,49.39,298.075,45.8,298.075z M45.8,278.375c-1.846,0-3.3,0.605-4.578,1.905   c-0.007,0.007-0.014,0.015-0.021,0.021c-1.314,1.313-1.926,2.775-1.926,4.599c0,1.846,0.605,3.301,1.905,4.577   c1.319,1.342,2.774,1.947,4.62,1.947c1.835,0,3.318-0.618,4.669-1.946c1.261-1.26,1.856-2.721,1.856-4.578   c0-1.835-0.603-3.303-1.896-4.619C49.118,278.993,47.635,278.375,45.8,278.375z"/></g><g><path fill="#000000" d="M3.55,462.675h-72.2c-1.836,0-3.325-1.489-3.325-3.325V387.3c0-1.836,1.489-3.325,3.325-3.325h37.75   c1.836,0,3.325,1.489,3.325,3.325s-1.489,3.325-3.325,3.325h-34.425v65.399H0.225V423.7c0-1.836,1.489-3.325,3.325-3.325   s3.325,1.489,3.325,3.325v35.649C6.875,461.186,5.386,462.675,3.55,462.675z M-38.254,435.476c-1.637,0-3.063-1.209-3.29-2.876   c-0.12-0.877-0.181-1.785-0.181-2.699c0-3.032,0.347-5.954,1.031-8.686c0.073-0.359,0.146-0.684,0.219-0.975   c1.59-5.993,4.724-11.342,9.324-15.941c7.196-7.16,15.814-10.724,25.688-10.624c2.679-0.045,5.286,0.176,7.785,0.672l-2.796-5.164   c-0.875-1.614-0.274-3.633,1.341-4.507c1.613-0.874,3.633-0.275,4.507,1.341l6.844,12.641c0.398,0.729,0.496,1.545,0.33,2.301   c-0.045,0.211-0.112,0.417-0.198,0.615c-0.238,0.55-0.625,1.039-1.144,1.401c-0.091,0.063-0.185,0.122-0.28,0.176l-11.065,6.381   c-1.592,0.914-3.625,0.371-4.542-1.22c-0.917-1.591-0.372-3.624,1.219-4.542l4.882-2.814c-2.172-0.464-4.467-0.676-6.861-0.631   c-8.219-0.054-15.053,2.75-21.015,8.683c-3.755,3.754-6.308,8.095-7.582,12.896c-0.044,0.177-0.099,0.425-0.154,0.701   c-0.011,0.055-0.023,0.109-0.037,0.163c-0.563,2.221-0.848,4.621-0.848,7.134c0,0.614,0.04,1.22,0.119,1.801   c0.249,1.819-1.025,3.495-2.845,3.744C-37.953,435.466-38.104,435.476-38.254,435.476z"/></g><g><path fill="#000000" d="M-412.186-151.417c-1.179,0-2.298-0.377-3.287-1.107c-0.132-0.097-0.256-0.204-0.373-0.319   c-0.354-0.352-0.648-0.761-0.876-1.215c-0.053-0.105-0.1-0.213-0.142-0.323c-0.475-1.265-0.482-2.623-0.022-3.926   c1.181-3.578,2.4-7.219,3.637-10.861c0.286-0.858,0.685-1.678,1.178-2.419c0.001-0.002,0.002-0.004,0.004-0.006   c0.387-0.581,0.83-1.121,1.315-1.607c1.808-1.808,3.598-3.582,5.373-5.322l40.917-41.067l6.743-6.843c0,0,0.001-0.001,0.001-0.001   l0,0c0.003-0.003,0.006-0.006,0.01-0.01l7.548-7.598c1.656-1.695,3.351-2.063,4.478-2.069c1.68-0.002,3.222,0.701,4.632,2.111   l6.1,6.1c2.748,2.748,2.778,6.31,0.077,9.075l-7.569,7.62c-0.001,0.001-0.002,0.002-0.003,0.003l-6.746,6.796   c-0.002,0.002-0.004,0.004-0.006,0.006l-40.947,41.146c-1.741,1.741-3.493,3.526-5.212,5.312c-0.051,0.053-0.104,0.104-0.158,0.153   c-0.471,0.428-0.957,0.807-1.447,1.127c-0.816,0.593-1.718,1.03-2.682,1.298c-3.562,1.177-7.163,2.405-10.705,3.651   C-410.969-151.515-411.585-151.417-412.186-151.417z M-407.526-165.336c-0.715,2.116-1.423,4.228-2.125,6.337   c2.034-0.704,4.1-1.407,6.164-2.096C-404.66-162.955-406-164.362-407.526-165.336z M-403.734-170.805   c2.207,1.457,4.133,3.463,5.766,6.005c1.038-1.061,2.08-2.115,3.117-3.151l38.599-38.788l-5.838-5.81l-38.604,38.746   C-401.709-172.807-402.721-171.81-403.734-170.805z M-357.41-217.273l5.846,5.818l2.07-2.086l-5.839-5.839L-357.41-217.273z    M-350.656-224.108l5.848,5.848l5.031-5.064l-5.848-5.848L-350.656-224.108z"/></g><g><path fill="#000000" d="M-507.902-150.224c-0.024,0-0.048,0-0.072,0h-11.476c-1.476,0-2.774-0.973-3.19-2.388l-8.246-27.938   c-0.001-0.004-0.002-0.008-0.003-0.012l-4.239-14.413c-0.033-0.109-0.061-0.221-0.083-0.333c0-0.001,0-0.002,0-0.002   c-0.025-0.126-0.042-0.252-0.052-0.379c-0.06-0.762,0.14-1.547,0.623-2.212c0.001-0.001,0.002-0.002,0.002-0.003   c0.009-0.013,0.019-0.025,0.028-0.038c0,0,0,0,0,0l16.597-22.246c0.627-0.841,1.616-1.337,2.665-1.337h35.5   c1.051,0,2.041,0.497,2.668,1.341l16.529,22.222c0.411,0.539,0.66,1.208,0.677,1.933c0.001,0.06,0.001,0.121-0.001,0.181   c-0.009,0.316-0.063,0.622-0.155,0.911l-4.207,14.305c-0.014,0.052-0.029,0.103-0.045,0.153l-4.257,14.354   c-0.013,0.046-0.026,0.092-0.041,0.137l-3.928,13.376c-0.416,1.416-1.715,2.388-3.19,2.388h-11.425   c-0.048,0.001-0.097,0.001-0.145,0h-20.46C-507.854-150.224-507.878-150.224-507.902-150.224z M-483.014-156.875h4.726l1.997-6.8   h-4.979L-483.014-156.875z M-495.375-156.875h5.496l1.744-6.8h-7.239V-156.875z M-505.32-156.875h3.295v-6.8h-5.039   L-505.32-156.875z M-516.961-156.875h4.776l-1.744-6.8h-5.028L-516.961-156.875z M-479.556-170.325h5.224l2.328-7.85h-5.521   L-479.556-170.325z M-495.375-170.325h8.95l2.03-7.85h-10.98V-170.325z M-508.775-170.325h6.75v-7.85h-8.78L-508.775-170.325z    M-520.918-170.325h5.273l-2.03-7.85h-5.571L-520.918-170.325z M-475.816-184.825h5.779l2.294-7.8h-6.075L-475.816-184.825z    M-495.375-184.825h12.694l1.998-7.8h-14.691V-184.825z M-512.528-184.825h10.502v-7.8h-12.527L-512.528-184.825z    M-525.212-184.825h5.814l-2.024-7.8h-6.084L-525.212-184.825z M-476.4-199.275h6.483l-11.604-15.6h-32.161l-11.639,15.6H-476.4z"/></g><g><path fill="#000000" d="M-416.799-52.425c-0.865,0-1.715-0.338-2.352-0.974l-25.05-25.05c-0.624-0.624-0.974-1.469-0.974-2.351   s0.351-1.728,0.974-2.351l25.05-25.05c0.951-0.951,2.38-1.235,3.624-0.721c1.242,0.515,2.053,1.727,2.053,3.072v50.1   c0,1.345-0.81,2.557-2.053,3.072C-415.939-52.508-416.371-52.425-416.799-52.425z M-437.148-80.8l17.023,17.022v-34.045   L-437.148-80.8z M-454.35-52.675h-35.5c-4.888,0-7.925-3.037-7.925-7.925v-35.45c0-4.888,3.037-7.925,7.925-7.925h35.5   c4.857,0,7.875,3.037,7.875,7.925v35.45C-446.475-55.712-449.493-52.675-454.35-52.675z M-489.85-97.325   c-0.713,0-1.043,0.133-1.103,0.18c-0.039,0.052-0.172,0.382-0.172,1.095v35.45c0,0.713,0.133,1.043,0.18,1.103   c0.052,0.039,0.382,0.172,1.095,0.172h35.5c0.794,0,1.045-0.162,1.055-0.169l0,0c-0.003,0,0.17-0.263,0.17-1.106v-35.45   c0-0.843-0.173-1.105-0.181-1.117c0-0.003-0.181-0.158-1.044-0.158H-489.85z"/></g><g><path fill="#000000" d="M-296.675-36.1c-3.667,0-7.26-1.732-10.676-5.149l-33.7-33.7c-2.288-2.38-3.424-5.191-3.424-8.401   l-0.1-27.538c0-0.036,0-0.071,0.001-0.106c0.091-3.208,1.26-6.003,3.476-8.31c2.328-2.328,5.174-3.53,8.508-3.62   c0.034-0.001,0.067-0.001,0.103-0.001l27.45,0.1c3.173,0,5.984,1.104,8.343,3.282c0.033,0.03,0.065,0.062,0.097,0.093l33.7,33.75   c3.404,3.384,5.134,6.965,5.135,10.637c0,3.688-1.748,7.295-5.193,10.721l-23.093,23.093C-289.419-37.837-293-36.1-296.675-36.1z    M-337.925-110.854l0.1,27.492c0,1.487,0.483,2.678,1.522,3.759l33.653,33.652c2.125,2.124,4.134,3.201,5.974,3.201   c1.832,0,3.82-1.072,5.91-3.187l23.114-23.114c2.151-2.139,3.238-4.159,3.238-6.011c0-1.836-1.07-3.831-3.181-5.929l-33.657-33.707   c-1.109-1.007-2.318-1.477-3.799-1.477l-27.407-0.1c-1.598,0.053-2.836,0.57-3.893,1.626   C-337.356-113.6-337.872-112.378-337.925-110.854z M-317.6-82.875c-3.844,0-7.181-1.411-9.919-4.192   c-2.751-2.751-4.156-6.083-4.156-9.883c0-3.887,1.417-7.23,4.212-9.938c2.699-2.699,6.03-4.087,9.863-4.087   c3.867,0,7.215,1.388,9.951,4.124c2.73,2.687,4.124,6.024,4.124,9.901c0,3.791-1.381,7.116-4.105,9.883   C-310.369-84.286-313.723-82.875-317.6-82.875z M-317.6-104.325c-2.062,0-3.714,0.691-5.199,2.176   c-1.531,1.484-2.226,3.124-2.226,5.199c0,2.028,0.707,3.68,2.226,5.199c1.501,1.524,3.147,2.226,5.199,2.226   c2.086,0,3.748-0.701,5.23-2.207c1.497-1.521,2.194-3.179,2.194-5.218c0-2.085-0.685-3.731-2.157-5.18   C-313.836-103.633-315.503-104.325-317.6-104.325z"/></g><g><path fill="#000000" d="M-164.1-116.075h-71.8c-1.836,0-3.325-1.489-3.325-3.325s1.489-3.325,3.325-3.325h71.8   c1.836,0,3.325,1.489,3.325,3.325S-162.264-116.075-164.1-116.075z M-164.1-139.875h-71.8c-1.836,0-3.325-1.489-3.325-3.325   s1.489-3.325,3.325-3.325h71.8c1.836,0,3.325,1.489,3.325,3.325S-162.264-139.875-164.1-139.875z M-164.1-163.675h-71.8   c-1.836,0-3.325-1.489-3.325-3.325s1.489-3.325,3.325-3.325h71.8c1.836,0,3.325,1.489,3.325,3.325S-162.264-163.675-164.1-163.675z   "/></g><g><path fill="#000000" d="M-442.65,311.425h-78.75c-1.836,0-3.325-1.489-3.325-3.325s1.489-3.325,3.325-3.325h78.75   c1.836,0,3.325,1.489,3.325,3.325S-440.813,311.425-442.65,311.425z M-518.201,302.026c-0.406,0-0.819-0.075-1.22-0.233   c-1.708-0.675-2.546-2.605-1.872-4.313l12.85-32.55c0.458-1.161,1.529-1.968,2.771-2.089c1.234-0.126,2.448,0.464,3.121,1.517   l8.421,13.146l11.509-27.681c0.462-1.112,1.489-1.887,2.685-2.026c1.196-0.135,2.374,0.378,3.08,1.354l9.039,12.496l9.813-24.069   l-3.249,1.078c-1.744,0.579-3.624-0.366-4.203-2.109c-0.578-1.743,0.366-3.625,2.109-4.203l10.028-3.325   c0.5-0.179,1.029-0.231,1.538-0.167c0.003,0.003,0.007,0.001,0.01,0.002c0.004,0,0.008,0.001,0.011,0.001   c0.003-0.001,0.007,0.001,0.011,0.002c0.04,0.005,0.08,0.012,0.12,0.019c0,0,0,0,0,0c0.005,0.001,0.009,0.002,0.013,0.002   c0.004,0.001,0.007,0,0.012,0.002c0.005,0.001,0.007,0,0.012,0.003c0.001,0,0.003,0,0.005,0.001   c0.787,0.147,1.521,0.578,2.038,1.261c0.031,0.041,0.061,0.082,0.089,0.123l5.287,7.581c1.051,1.507,0.681,3.579-0.825,4.63   c-1.505,1.048-3.579,0.681-4.629-0.825l-1.803-2.585l-12.491,30.638c-0.456,1.119-1.483,1.902-2.683,2.046   c-1.199,0.148-2.383-0.373-3.091-1.353l-9.067-12.535l-11.668,28.063c-0.475,1.143-1.546,1.928-2.779,2.036   c-1.237,0.096-2.424-0.478-3.091-1.52l-8.344-13.026l-10.463,26.504C-515.624,301.229-516.876,302.026-518.201,302.026z    M-184.95-8.125c-2.766,0-5.273-1.046-7.251-3.024c-1.946-1.946-2.974-4.437-2.974-7.201s1.028-5.255,2.974-7.201   c1.979-1.979,4.486-3.024,7.251-3.024c2.76,0,5.264,1.042,7.24,3.012c1.986,1.946,3.036,4.44,3.036,7.213   c0,2.781-1.056,5.281-3.053,7.23C-179.677-9.171-182.184-8.125-184.95-8.125z M-184.95-21.925c-1.019,0-1.805,0.332-2.549,1.076   c-0.709,0.71-1.026,1.48-1.026,2.499s0.316,1.789,1.026,2.5c0.744,0.744,1.53,1.075,2.548,1.075c1.019,0,1.805-0.332,2.549-1.076   c0.753-0.735,1.076-1.497,1.076-2.499s-0.323-1.764-1.047-2.47c-0.01-0.01-0.019-0.019-0.029-0.029   C-183.145-21.593-183.931-21.925-184.95-21.925z M-212.35-8.125c-2.766,0-5.273-1.046-7.251-3.024   c-1.946-1.945-2.974-4.436-2.974-7.201s1.028-5.256,2.974-7.201c1.978-1.978,4.485-3.024,7.251-3.024s5.273,1.046,7.251,3.024   c1.946,1.945,2.974,4.436,2.974,7.201s-1.028,5.256-2.974,7.201C-207.077-9.171-209.584-8.125-212.35-8.125z M-212.35-21.925   c-1.019,0-1.805,0.332-2.549,1.076c-0.709,0.71-1.026,1.48-1.026,2.499s0.316,1.79,1.026,2.499c0.744,0.744,1.53,1.076,2.549,1.076   s1.805-0.332,2.549-1.076c0.709-0.709,1.026-1.48,1.026-2.499s-0.316-1.789-1.026-2.499   C-210.545-21.593-211.332-21.925-212.35-21.925z M-176.85-29.625h-41.6c-1.362,0-2.586-0.831-3.089-2.096l-3.572-8.979   c-0.019-0.045-0.038-0.091-0.055-0.138l-3.843-9.607c-0.022-0.052-0.043-0.104-0.063-0.158l-3.821-9.676   c-0.404-1.024-0.275-2.181,0.344-3.091s1.648-1.455,2.749-1.455h48.25c1.836,0,3.325,1.489,3.325,3.325s-1.489,3.325-3.325,3.325   h-43.362l1.224,3.1h39.588c1.836,0,3.325,1.489,3.325,3.325s-1.489,3.325-3.325,3.325h-36.939l1.24,3.1h33.199   c1.836,0,3.325,1.489,3.325,3.325s-1.489,3.325-3.325,3.325h-30.549l0.955,2.399h36.707l8.799-37.632   c0.352-1.504,1.693-2.568,3.238-2.568h11.9c1.836,0,3.325,1.489,3.325,3.325s-1.489,3.325-3.325,3.325h-9.263l-8.799,37.631   C-173.964-30.689-175.305-29.625-176.85-29.625z"/></g><g><path fill="#000000" d="M-71.05-24.725h-0.3c-7.486,0-14.141-0.572-19.782-1.701c-0.058-0.01-0.116-0.022-0.174-0.036   c-0.795-0.166-1.556-0.328-2.301-0.49c-5.432-1.334-11.568-3.479-11.568-8.449v-0.033l-7.936-60.609   c-0.076-0.308-0.114-0.627-0.114-0.958c0-5.056,6.73-7.033,14.003-8.417c7.701-1.465,17.078-2.208,27.872-2.208   c10.827,0,20.221,0.743,27.922,2.208c0.001,0,0.001,0,0.002,0c7.246,1.385,13.951,3.363,13.951,8.416   c0,0.641-0.119,1.267-0.347,1.85l-7.786,58.563c0.088,0.391,0.133,0.788,0.133,1.188c0,1.156-0.367,2.295-1.063,3.301   c-0.061,0.09-0.125,0.177-0.194,0.26c-1.646,2.049-4.81,3.553-10.235,4.87c-0.669,0.167-1.361,0.324-2.054,0.463   c-0.043,0.01-0.087,0.019-0.131,0.027C-56.781-25.316-63.483-24.725-71.05-24.725z M-87.432-32.514   c3.878,0.626,8.253,0.998,13.057,1.106v-54.936c-6.307-0.083-12.097-0.424-17.294-1.021L-87.432-32.514z M-67.725-86.35v54.934   c4.731-0.12,9.036-0.5,12.854-1.134l4.191-54.883C-55.82-86.808-61.527-86.445-67.725-86.35z M-98.532-35.871   c0.363,0.303,1.448,1.016,4.315,1.872l-4.2-54.385c-0.267-0.049-0.532-0.099-0.795-0.148c-2.51-0.488-4.637-1.007-6.415-1.575   l7.074,54.025C-98.544-36.012-98.537-35.941-98.532-35.871z M-43.933-88.449l-4.151,54.353c2.022-0.618,3.093-1.151,3.641-1.496   l0.144-1.127c0-0.002,0-0.003,0-0.005c0,0,0-0.002,0.001-0.005c0,0,0-0.003,0-0.004c0-0.001,0-0.002,0-0.003l0,0   c0-0.001,0-0.002,0-0.003l7.086-53.301c-1.726,0.541-3.781,1.036-6.208,1.506L-43.933-88.449z M-94.763-94.482   c6.627,1,14.505,1.507,23.413,1.507h0.3c8.908,0,16.802-0.54,23.463-1.606l2.991-0.499c3.651-0.708,5.817-1.389,7.083-1.905   c-1.273-0.513-3.46-1.192-7.159-1.898l0,0c-7.292-1.388-16.269-2.091-26.679-2.091c-10.377,0-19.336,0.704-26.628,2.091   c-3.689,0.702-5.883,1.376-7.168,1.889c1.276,0.52,3.47,1.208,7.182,1.931C-96.945-94.873-95.87-94.677-94.763-94.482z"/></g><g><path fill="#000000" d="M-650.55,116.375c-0.633,0-1.259-0.182-1.8-0.529c-0.746-0.48-1.269-1.239-1.453-2.106l-3.75-17.7   c-0.38-1.797,0.767-3.562,2.564-3.942c1.792-0.379,3.561,0.768,3.942,2.563l3.054,14.417l39.823-8.823   c1.795-0.398,3.569,0.735,3.965,2.526c0.397,1.793-0.734,3.568-2.527,3.966l-43.1,9.55   C-650.068,116.349-650.31,116.375-650.55,116.375z M-597.246,99.025c-0.188,0-0.379-0.016-0.571-0.049L-659.8,88.238   c-0.083-0.013-0.166-0.029-0.248-0.048l-0.656-0.131c-1.782-0.357-2.947-2.078-2.616-3.865l0.238-1.284   c0.005-0.031,0.011-0.063,0.017-0.094l6.839-39.139c0.152-0.87,0.643-1.643,1.366-2.149c0.722-0.507,1.615-0.708,2.486-0.553   l62.8,11.05c1.808,0.318,3.017,2.042,2.699,3.85l-7.1,40.4C-594.259,97.89-595.662,99.025-597.246,99.025z M-656.191,82.115   l56.241,9.742L-594,57.998l-56.248-9.896L-656.191,82.115z M-603.896,88.925c-0.214,0-0.431-0.021-0.648-0.063l-8.85-1.75   c-1.801-0.356-2.973-2.105-2.617-3.906c0.356-1.802,2.104-2.972,3.907-2.617l8.85,1.75c1.801,0.356,2.973,2.105,2.617,3.906   C-600.951,87.828-602.341,88.925-603.896,88.925z M-621.347,86.325c-0.22,0-0.443-0.021-0.668-0.067   c-1.799-0.367-2.96-2.123-2.593-3.922l1.155-5.667c-1.555,0.786-3.475,0.236-4.367-1.289c-0.928-1.585-0.395-3.621,1.19-4.549   l0.828-0.485c-0.139-0.151-0.266-0.319-0.378-0.501c-0.964-1.563-0.478-3.611,1.085-4.575l1.481-0.914   c-0.084-0.107-0.163-0.221-0.235-0.341c-0.947-1.573-0.439-3.616,1.134-4.563l4.9-2.95c1.563-0.943,3.597-0.445,4.551,1.112l3,4.9   c0.958,1.566,0.466,3.613-1.1,4.572c-0.133,0.082-0.271,0.153-0.411,0.214l0.891,1.515c0.931,1.583,0.403,3.62-1.18,4.552   c-0.117,0.068-0.237,0.13-0.358,0.183l0.456,0.658c1.045,1.51,0.668,3.581-0.841,4.626c-1.334,0.926-3.109,0.738-4.225-0.363   l-1.06,5.194C-618.414,85.239-619.799,86.325-621.347,86.325z M-630.296,84.226c-0.217,0-0.437-0.021-0.657-0.065l-19.95-4   c-1.8-0.36-2.967-2.113-2.606-3.913c0.361-1.801,2.115-2.973,3.914-2.606l19.95,4c1.8,0.36,2.967,2.113,2.606,3.913   C-627.356,83.134-628.745,84.226-630.296,84.226z M-639.33,71.972c-2.178,0-4.157-0.745-5.779-2.187   c-1.85-1.556-2.996-3.719-3.249-6.198c-0.15-1.138-0.062-2.328,0.273-3.443c0.354-1.162,0.942-2.276,1.753-3.326   c1.643-2.015,3.839-3.176,6.408-3.427c2.55-0.202,4.882,0.525,6.796,2.108c0.226,0.174,0.4,0.326,0.528,0.45   c1.687,1.596,2.642,3.656,2.767,5.964c0.229,2.558-0.526,4.904-2.188,6.795c-1.592,1.922-3.745,3.028-6.233,3.204   C-638.617,71.952-638.976,71.972-639.33,71.972z M-639.044,60.003c-0.094,0-0.19,0.004-0.29,0.012   c-0.764,0.075-1.316,0.356-1.79,0.938c-0.262,0.34-0.48,0.739-0.595,1.116c-0.061,0.201-0.073,0.451-0.034,0.751   c0.09,0.872,0.384,1.423,0.995,1.937c0.423,0.375,0.88,0.653,1.82,0.542c0.062-0.008,0.124-0.014,0.186-0.017   c0.708-0.044,1.179-0.285,1.626-0.834c0.031-0.037,0.062-0.074,0.094-0.11c0.483-0.542,0.649-1.081,0.573-1.862   c-0.006-0.059-0.01-0.117-0.013-0.176c-0.028-0.628-0.236-1.082-0.697-1.519c-0.051-0.039-0.131-0.102-0.173-0.137   C-637.866,60.201-638.388,60.003-639.044,60.003z"/></g><g><path d="M45.743,87.383c-1.12,0-2.167-0.564-2.781-1.503c-1.277-1.95-2.521-3.882-3.73-5.797c-3.162-4.94-6.382-9.888-9.561-14.689   c-2.863-4.295-5.732-8.614-8.601-12.952c-3.426-5.176-5.441-10.926-5.988-17.09c-0.598-6.984,1.05-13.438,4.897-19.192   c3.429-5.067,7.974-8.818,13.519-11.164c1.85-0.767,3.722-1.349,5.586-1.741c1.641-0.345,3.316-0.553,4.978-0.618   c0.36-0.013,0.705-0.019,1.051-0.019c1.948,0,3.938,0.193,5.912,0.576c5.902,1.24,11.022,4.017,15.27,8.263   c0.746,0.785,1.423,1.554,2.072,2.347c3.869,4.538,6.102,9.935,6.59,15.987c0.549,6.475-0.641,12.719-3.536,18.547   c-1.783,3.567-3.743,7.019-5.829,10.268c-2.436,3.752-4.881,7.602-7.273,11.457c-3.266,5.264-6.514,10.512-9.746,15.744   c-0.598,0.967-1.648,1.562-2.785,1.577C45.772,87.383,45.758,87.383,45.743,87.383z M45.113,9.267   c-0.269,0-0.537,0.005-0.804,0.015c-1.276,0.05-2.579,0.212-3.857,0.48c-1.462,0.308-2.938,0.768-4.386,1.367   c-4.381,1.854-7.845,4.716-10.569,8.742c-3.019,4.515-4.262,9.395-3.791,14.903c0.447,5.039,2.099,9.753,4.909,13.998   c2.865,4.331,5.729,8.645,8.594,12.94c3.204,4.84,6.443,9.816,9.634,14.803c0.277,0.439,0.557,0.879,0.837,1.319   c2.321-3.752,4.649-7.512,6.987-11.28c2.418-3.894,4.886-7.782,7.336-11.558c1.95-3.035,3.791-6.279,5.465-9.627   c2.344-4.715,3.307-9.774,2.861-15.032c-0.381-4.709-2.037-8.719-5.066-12.272c-0.59-0.719-1.157-1.363-1.731-1.969   c-3.306-3.303-7.192-5.412-11.822-6.385C48.201,9.42,46.639,9.267,45.113,9.267z M44.894,47.983c-4.397,0-8.217-1.59-11.351-4.724   c-3.102-3.102-4.674-6.904-4.674-11.302c0-4.389,1.567-8.203,4.659-11.335c3.164-3.123,6.978-4.69,11.367-4.69   c4.397,0,8.199,1.573,11.301,4.674c3.135,3.135,4.724,6.954,4.724,11.352c0,4.406-1.594,8.214-4.739,11.317   C53.107,46.389,49.299,47.983,44.894,47.983z M44.894,22.583c-2.615,0-4.795,0.896-6.665,2.742c-1.814,1.838-2.71,4.019-2.71,6.633   c0,2.606,0.892,4.765,2.726,6.599c1.868,1.868,4.043,2.776,6.649,2.776c2.597,0,4.75-0.902,6.583-2.76   c1.889-1.864,2.791-4.018,2.791-6.615c0-2.605-0.907-4.781-2.775-6.648C49.658,23.475,47.499,22.583,44.894,22.583z"/></g><g><path fill="#000000" d="M-366.25,315.675c-3.556,0-6.685-1.172-9.301-3.482c-0.055-0.049-0.108-0.099-0.159-0.15   c-2.526-2.369-3.876-5.265-4.012-8.607c-0.074-1.835,1.353-3.383,3.188-3.457c1.848-0.058,3.383,1.353,3.457,3.188   c0.064,1.592,0.682,2.879,1.942,4.051l-0.001,0.001c0.016,0.014,0.03,0.027,0.045,0.042c1.371,1.188,2.955,1.766,4.841,1.766   c1.739,0,3.201-0.464,4.469-1.419l0.507-0.429c1.199-1.158,1.788-2.435,1.852-4.012c0.075-1.835,1.625-3.282,3.457-3.188   c1.835,0.074,3.262,1.622,3.188,3.457c-0.136,3.353-1.477,6.256-3.986,8.631c-0.042,0.039-0.084,0.077-0.127,0.114   c-0.244,0.208-0.47,0.399-0.679,0.574c-0.034,0.028-0.069,0.056-0.104,0.083C-360.126,314.72-363.012,315.675-366.25,315.675z    M-329.45,297.726h-74.65c-0.967,0-1.886-0.421-2.517-1.152c-0.632-0.732-0.914-1.703-0.772-2.659   c0.474-3.21,1.346-6.286,2.591-9.143c0.837-1.863,1.841-3.607,3.001-5.216c2.844-4.078,6.195-8.009,9.93-11.64   c1.679-1.654,2.585-3.486,2.753-5.583c0.15-2.319,0.104-4.722-0.143-7.089c-0.582-5.044,0.54-9.888,3.339-14.358   c0.928-1.503,2.201-2.826,3.772-3.917c4.287-2.947,9.253-4.456,14.773-4.494c0.194,0.001,0.403,0.017,0.598,0.05   c0.194-0.033,0.396-0.051,0.597-0.05c5.558,0.038,10.529,1.55,14.773,4.493c1.574,1.093,2.847,2.417,3.784,3.937   c2.783,4.443,3.923,9.278,3.377,14.352c-0.279,2.385-0.341,4.772-0.188,7.129c0.165,2.036,1.081,3.862,2.798,5.529   c3.709,3.64,7.039,7.566,9.911,11.684c1.129,1.565,2.134,3.31,2.957,5.14c1.292,2.88,2.17,5.979,2.611,9.214   c0.13,0.951-0.158,1.912-0.79,2.636S-328.49,297.726-329.45,297.726z M-400,291.075h66.474c-0.351-1.247-0.787-2.454-1.308-3.615   c-0.638-1.419-1.417-2.771-2.313-4.016c-2.667-3.822-5.729-7.433-9.132-10.771c-2.873-2.789-4.487-6.093-4.786-9.807   c-0.183-2.808-0.11-5.601,0.212-8.353c0.384-3.573-0.405-6.887-2.416-10.099c-0.473-0.766-1.1-1.408-1.928-1.983   c-3.166-2.196-6.773-3.278-11.026-3.307c-0.188-0.002-0.373-0.019-0.553-0.05c-0.179,0.031-0.364,0.048-0.552,0.05   c-4.225,0.028-7.835,1.113-11.039,3.315c-0.816,0.565-1.443,1.209-1.905,1.957c-2.017,3.222-2.791,6.527-2.376,10.122   c0.289,2.774,0.343,5.553,0.165,8.295c-0.302,3.757-1.894,7.055-4.734,9.854c-3.448,3.354-6.524,6.959-9.157,10.734   c-0.927,1.287-1.706,2.639-2.344,4.06C-399.219,288.614-399.648,289.823-400,291.075z"/></g></svg>