<svg width='200' height='200' fill="#61606e" xmlns="http://www.w3.org/2000/svg" xmlns:xlink="http://www.w3.org/1999/xlink" xml:space="preserve" version="1.1" style="shape-rendering:geometricPrecision;text-rendering:geometricPrecision;image-rendering:optimizeQuality;" viewBox="0 0 3672 4841" x="0px" y="0px" fill-rule="evenodd" clip-rule="evenodd"><defs><style type="text/css">
   
    .fil0 {fill:#61606e}
   
  </style></defs><g><g><path class="fil0" d="M2936 1583l161 -126c37,-28 86,-32 118,0l38 38 123 123 38 38c33,33 28,82 0,118l-125 162c42,73 75,151 97,234l203 26c46,6 83,38 83,84l0 54 0 173 0 54c0,46 -37,78 -83,84l-203 25c-22,83 -55,162 -97,235l125 162c28,36 33,85 0,117l-38 39 -123 122 -38 39c-32,32 -81,28 -118,0l-161 -126c-73,42 -152,75 -235,97l-26 203c-6,46 -37,84 -83,84l-54 0 -174 0 -54 0c-45,0 -77,-38 -83,-84l-26 -203c-83,-22 -161,-55 -234,-97l-162 126c-36,28 -85,32 -118,0l-38 -39 -123 -122 -38 -39c-32,-32 -28,-81 0,-117l125 -162c-42,-73 -75,-152 -97,-235l-203 -25c-45,-6 -83,-38 -83,-84l0 -54 0 -173 0 -54c0,-46 38,-78 83,-84l203 -26c22,-83 55,-161 97,-234l-125 -162c-28,-36 -32,-85 0,-118l38 -38 123 -123 38 -38c33,-32 82,-28 118,0l162 126c73,-43 151,-75 234,-98l26 -203 0 -2 1 -2 0 -2 1 -2 0 -2 0 -2 1 -2 1 -2 0 -2 1 -2 0 -2 1 -2 1 -2 1 -2 0 -2 1 -2 1 -2 1 -1 1 -2 1 -2 0 0 1 -2 1 -1 1 -2 1 -2 1 -1 1 -2 1 -2 2 -1 1 -2 1 -1 1 -2 2 -1 0 0 1 -2 0 0 2 -1 0 0 1 -1 1 -2 2 -1 0 0 1 -1 2 -1 1 -1 2 -2c1,0 2,-1 3,-2l0 0 2 -1 0 0 2 -1 1 0 0 0 2 -1 0 0 2 -1 0 0 2 -1 2 -1 0 0 1 0 0 0 2 -1 2 -1 0 0 2 0 0 0 2 -1 2 0 0 0 2 0 0 0c1,-1 3,-1 4,-1 1,0 3,0 4,-1l2 0 0 0 2 0 0 0 2 0 0 0 54 0 174 0 54 0c46,0 77,38 83,83l26 203c83,23 162,55 235,98zm-485 470c102,0 194,41 260,108 67,66 108,158 108,259 0,102 -41,194 -108,260 -66,67 -158,108 -260,108 -101,0 -193,-41 -260,-108 -66,-66 -107,-158 -107,-260 0,-101 41,-193 107,-259 67,-67 159,-108 260,-108zm137 231c-35,-35 -83,-57 -137,-57 -53,0 -102,22 -137,57 -34,35 -56,83 -56,136 0,54 22,102 56,137 35,35 84,57 137,57 54,0 102,-22 137,-57 35,-35 57,-83 57,-137 0,-53 -22,-101 -57,-136zm-137 -580c396,0 717,321 717,716 0,396 -321,717 -717,717 -396,0 -716,-321 -716,-717 0,-395 320,-716 716,-716z"/><path class="fil0" d="M291 0l1973 0c160,0 291,131 291,291l0 653 -247 0 -15 0 -6 1 -2 0 0 -255 -2015 0 0 3461 2015 0 0 -255c8,1 17,1 25,1l245 0 0 652c0,161 -131,292 -291,292l-1973 0c-160,0 -291,-131 -291,-292l0 -4258c0,-160 131,-291 291,-291zm477 248c54,0 97,43 97,97 0,54 -43,98 -97,98 -54,0 -98,-44 -98,-98 0,-54 44,-97 98,-97zm341 23l699 0c42,0 77,34 77,76l0 0c0,42 -35,77 -77,77l-699 0c-42,0 -76,-35 -76,-77l0 0c0,-42 34,-76 76,-76zm168 4037c104,0 189,84 189,188 0,104 -85,188 -189,188 -103,0 -188,-84 -188,-188 0,-104 85,-188 188,-188z"/></g></g></svg>