<svg width='200' height='200' fill="#e2bcd5" xmlns="http://www.w3.org/2000/svg" xmlns:xlink="http://www.w3.org/1999/xlink" version="1.1" x="0px" y="0px" viewBox="0 0 100 100" style="enable-background:new 0 0 100 100;" xml:space="preserve"><g><path d="M63.245,32.682c0.36,0.359,0.949,0.359,1.308,0L87.252,9.983c0.358-0.358,0.358-0.948,0-1.306l-3.432-3.43   c-0.357-0.36-0.947-0.36-1.307,0l-22.698,22.7c-0.358,0.358-0.358,0.947,0,1.307L63.245,32.682z"/><path d="M32.684,63.248l-3.43-3.431c-0.359-0.359-0.95-0.359-1.309,0L5.248,82.516c-0.359,0.359-0.359,0.947,0,1.307l3.429,3.431   c0.36,0.36,0.944,0.36,1.304,0l22.703-22.698C33.041,64.194,33.041,63.606,32.684,63.248z"/><path d="M94.359,19.82c-1.041-3.985-3.613-8.211-4.058-7.69c-0.642,0.756-22.576,22.569-23.473,23.462   c-0.678,0.681,5.173,2.812,7.617,4.138c2.427,1.315-8.979,12.9-15.369,19.295c-0.005,0.006-0.009,0.011-0.016,0.016   c-0.003,0.002-0.006,0.005-0.006,0.007c-0.005,0.006-0.009,0.01-0.015,0.014c-0.008,0.005-0.014,0.012-0.017,0.016   c-6.394,6.391-17.98,17.797-19.295,15.373c-1.326-2.445-3.458-8.298-4.137-7.618C34.912,67.51,12.649,89.858,12.13,90.302   c-0.521,0.444,3.706,3.017,7.688,4.06c14.468,3.444,32.516-6.834,50.111-24.379c0.01-0.009,0.017-0.019,0.027-0.026   c0.008-0.01,0.018-0.018,0.025-0.026C87.527,52.333,97.805,34.285,94.359,19.82z"/></g></svg>
