<svg width='200' height='200' fill="#a5da9a" xmlns="http://www.w3.org/2000/svg" data-name="Layer 1" viewBox="0 0 64 64" x="0px" y="0px"><title>0Artboard 15</title><path d="M29,17.5H5a2,2,0,0,0-2,2l-1,36c0,1.1,1.9,2,3,2H29a2,2,0,0,0,2-2v-36A2,2,0,0,0,29,17.5Zm-13,2a1,1,0,1,1-1,1A1,1,0,0,1,16,19.5Zm1,36a2,2,0,1,1,2-2A2,2,0,0,1,17,55.5Zm-11-6v-26H28v26Z"/><path d="M60,6.5H8a2,2,0,0,0-2,2v7H9v-6H59v29H33v3.39a1.5,1.5,0,1,1,0,2.22V54.5H46v-3a4,4,0,0,1-4-4H60a2,2,0,0,0,2-2V8.5A2,2,0,0,0,60,6.5Z"/></svg>