<svg fill="#61606e" xmlns="http://www.w3.org/2000/svg" xmlns:xlink="http://www.w3.org/1999/xlink" version="1.1" x="0px" y="0px" viewBox="0 0 60 60" style="enable-background:new 0 0 60 60;" xml:space="preserve"><g><path d="M59,0H1C0.448,0,0,0.448,0,1v58c0,0.552,0.448,1,1,1h58c0.552,0,1-0.448,1-1V1C60,0.448,59.552,0,59,0z M58,2v8H2V2H58z    M2,58V12h56v46H2z"/><rect x="5" y="5" width="5" height="2"/><rect x="13" y="5" width="5" height="2"/><path d="M36,30H6c-0.552,0-1,0.448-1,1v23c0,0.552,0.448,1,1,1h30c0.552,0,1-0.448,1-1V31C37,30.448,36.552,30,36,30z M35,53H7V32   h28V53z"/><path d="M54,15H23c-0.552,0-1,0.448-1,1v10c0,0.552,0.448,1,1,1h31c0.552,0,1-0.448,1-1V16C55,15.448,54.552,15,54,15z M53,25H24   v-8h29V25z"/><path d="M6,27h12c0.552,0,1-0.448,1-1V16c0-0.552-0.448-1-1-1H6c-0.552,0-1,0.448-1,1v10C5,26.552,5.448,27,6,27z M7,25v-3h10v3H7z    M17,17v3H7v-3H17z"/><rect x="40" y="31" width="15" height="2"/><rect x="40" y="36" width="15" height="2"/><rect x="40" y="41" width="15" height="2"/><rect x="40" y="46" width="15" height="2"/><rect x="40" y="51" width="15" height="2"/><rect x="19" y="48" width="4" height="2"/><rect x="13" y="48" width="4" height="2"/><rect x="25" y="48" width="4" height="2"/></g></svg>